<svg xmlns="http://www.w3.org/2000/svg" xmlns:xlink="http://www.w3.org/1999/xlink"><symbol id="alarm-clock" viewBox="0 0 58.153 58.153">
<g>
	<path d="M40.076,29.153h-7.142c-0.364-1.399-1.459-2.494-2.858-2.858V16.153c0-0.553-0.448-1-1-1s-1,0.447-1,1v10.142
		c-1.72,0.447-3,1.999-3,3.858c0,2.206,1.794,4,4,4c1.858,0,3.411-1.28,3.858-3h7.142c0.552,0,1-0.447,1-1
		S40.629,29.153,40.076,29.153z M29.076,32.153c-1.103,0-2-0.897-2-2s0.897-2,2-2s2,0.897,2,2S30.179,32.153,29.076,32.153z"/>
	<path d="M50.188,9.764l4.096,4.096c0.188,0.188,0.442,0.293,0.707,0.293s0.52-0.105,0.707-0.293c3.167-3.166,3.167-8.319,0-11.485
		c-3.166-3.166-8.319-3.166-11.485,0c-0.188,0.188-0.293,0.441-0.293,0.707s0.105,0.52,0.293,0.707l4.561,4.561l-1.699,1.699
		c-4.78-4.284-11.089-6.896-17.998-6.896s-13.218,2.612-17.998,6.896L9.379,8.35l4.561-4.561c0.188-0.188,0.293-0.441,0.293-0.707
		s-0.105-0.52-0.293-0.707c-3.166-3.166-8.319-3.166-11.485,0c-3.167,3.166-3.167,8.319,0,11.485
		c0.188,0.188,0.442,0.293,0.707,0.293s0.52-0.105,0.707-0.293l4.096-4.096l1.676,1.676c-4.679,4.857-7.565,11.453-7.565,18.713
		c0,9.898,5.357,18.564,13.321,23.265l-3.028,3.028c-0.391,0.391-0.391,1.023,0,1.414c0.195,0.195,0.451,0.293,0.707,0.293
		s0.512-0.098,0.707-0.293l3.45-3.45c3.578,1.754,7.597,2.743,11.843,2.743s8.265-0.989,11.843-2.743l3.45,3.45
		c0.195,0.195,0.451,0.293,0.707,0.293s0.512-0.098,0.707-0.293c0.391-0.391,0.391-1.023,0-1.414l-3.028-3.028
		c7.964-4.701,13.321-13.367,13.321-23.265c0-7.26-2.886-13.856-7.565-18.713L50.188,9.764z M54.283,3.789
		c2.146,2.146,2.362,5.502,0.649,7.893l-8.541-8.542C48.78,1.427,52.137,1.642,54.283,3.789z M3.22,11.681
		C1.507,9.291,1.723,5.935,3.869,3.789c2.146-2.146,5.503-2.361,7.892-0.649L3.22,11.681z M29.076,55.153c-13.785,0-25-11.215-25-25
		s11.215-25,25-25s25,11.215,25,25S42.862,55.153,29.076,55.153z"/>
	<path d="M48.958,18.61c-2.01-3.449-4.89-6.328-8.338-8.338c-0.016-0.011-0.026-0.028-0.043-0.038
		c-0.018-0.01-0.037-0.01-0.055-0.019c-3.373-1.944-7.28-3.063-11.445-3.063c-4.165,0-8.072,1.118-11.445,3.063
		c-0.018,0.009-0.038,0.008-0.055,0.019c-0.017,0.01-0.026,0.027-0.043,0.038c-3.449,2.01-6.328,4.889-8.338,8.338
		c-0.011,0.017-0.028,0.026-0.038,0.043c-0.01,0.017-0.01,0.037-0.018,0.055c-1.944,3.374-3.063,7.28-3.063,11.445
		s1.119,8.072,3.063,11.445c0.009,0.018,0.008,0.037,0.018,0.055c0.014,0.025,0.035,0.043,0.051,0.066
		c2.01,3.438,4.884,6.309,8.325,8.315c0.016,0.011,0.026,0.028,0.043,0.038c0.026,0.015,0.054,0.021,0.08,0.033
		c3.368,1.935,7.265,3.048,11.42,3.048s8.052-1.113,11.42-3.048c0.026-0.012,0.054-0.018,0.08-0.033
		c0.017-0.01,0.026-0.027,0.043-0.038c3.441-2.006,6.315-4.876,8.325-8.315c0.016-0.023,0.037-0.041,0.051-0.066
		c0.01-0.017,0.01-0.037,0.018-0.055c1.944-3.374,3.063-7.28,3.063-11.445s-1.119-8.072-3.063-11.445
		c-0.009-0.018-0.008-0.037-0.018-0.055C48.985,18.636,48.968,18.626,48.958,18.61z M40.419,47.799l-0.477-0.826
		c-0.277-0.478-0.888-0.643-1.366-0.366c-0.478,0.276-0.642,0.888-0.366,1.366l0.479,0.829c-2.603,1.347-5.52,2.153-8.612,2.3
		v-0.949c0-0.553-0.448-1-1-1s-1,0.447-1,1v0.949c-3.092-0.146-6.009-0.953-8.612-2.3l0.479-0.829
		c0.276-0.479,0.112-1.09-0.366-1.366c-0.481-0.276-1.09-0.111-1.366,0.366l-0.477,0.826c-2.525-1.628-4.675-3.779-6.303-6.303
		l0.826-0.477c0.478-0.276,0.642-0.888,0.366-1.366c-0.277-0.478-0.887-0.645-1.366-0.366l-0.829,0.479
		c-1.347-2.603-2.153-5.521-2.3-8.612h0.949c0.552,0,1-0.447,1-1s-0.448-1-1-1H8.127c0.147-3.092,0.953-6.01,2.3-8.612l0.829,0.479
		c0.158,0.091,0.33,0.134,0.499,0.134c0.346,0,0.682-0.18,0.867-0.5c0.276-0.479,0.112-1.09-0.366-1.366L11.43,18.81
		c1.628-2.524,3.779-4.675,6.303-6.303l0.477,0.826c0.186,0.32,0.521,0.5,0.867,0.5c0.169,0,0.341-0.043,0.499-0.134
		c0.478-0.276,0.642-0.888,0.366-1.366l-0.479-0.829c2.603-1.347,5.52-2.153,8.612-2.3v0.949c0,0.553,0.448,1,1,1s1-0.447,1-1V9.204
		c3.092,0.146,6.009,0.953,8.612,2.3l-0.479,0.829c-0.276,0.479-0.112,1.09,0.366,1.366c0.158,0.091,0.33,0.134,0.499,0.134
		c0.346,0,0.682-0.18,0.867-0.5l0.477-0.826c2.525,1.628,4.675,3.779,6.303,6.303l-0.826,0.477
		c-0.478,0.276-0.642,0.888-0.366,1.366c0.186,0.32,0.521,0.5,0.867,0.5c0.169,0,0.341-0.043,0.499-0.134l0.829-0.479
		c1.347,2.603,2.153,5.521,2.3,8.612h-0.949c-0.552,0-1,0.447-1,1s0.448,1,1,1h0.949c-0.147,3.092-0.953,6.01-2.3,8.612
		l-0.829-0.479c-0.48-0.278-1.09-0.111-1.366,0.366c-0.276,0.479-0.112,1.09,0.366,1.366l0.826,0.477
		C45.094,44.02,42.944,46.17,40.419,47.799z"/>
</g>
<g>
</g>
<g>
</g>
<g>
</g>
<g>
</g>
<g>
</g>
<g>
</g>
<g>
</g>
<g>
</g>
<g>
</g>
<g>
</g>
<g>
</g>
<g>
</g>
<g>
</g>
<g>
</g>
<g>
</g>
</symbol><symbol id="ascendant-bars-graphic" viewBox="0 0 512 512">
<g>
	<path d="M512,480v32H0V0h32v480H512z M228.906,177.719l130.719,32.656L404.875,135l41,24.625L448,32L336.406,93.938l41,24.625
		l-33.031,55.063l-125.281-31.344L84.688,276.688l22.625,22.625L228.906,177.719z M192,448h64V217.469l-17.281-4.312L192,259.875
		V448z M96,333.25V448h64V291.875l-52.688,52.688L96,333.25z M384,232v216h64V198.219l-32.156-19.281L384,232z M352,448V241.469
		l-64-16V448H352z"/>
</g>
<g>
</g>
<g>
</g>
<g>
</g>
<g>
</g>
<g>
</g>
<g>
</g>
<g>
</g>
<g>
</g>
<g>
</g>
<g>
</g>
<g>
</g>
<g>
</g>
<g>
</g>
<g>
</g>
<g>
</g>
</symbol><symbol id="digital-marketing" viewBox="0 0 512 512">
<g>
	<g>
		<path d="M197.964,32.041h-71.987c-5.521,0-9.998,4.476-9.998,9.998c0,5.522,4.477,9.998,9.998,9.998h71.987
			c5.521,0,9.998-4.476,9.998-9.998C207.962,36.517,203.485,32.041,197.964,32.041z"/>
	</g>
</g>
<g>
	<g>
		<path d="M169.038,456.653c-1.859-1.861-4.438-2.93-7.068-2.93s-5.209,1.07-7.069,2.93c-1.86,1.86-2.929,4.439-2.929,7.069
			c0,2.63,1.069,5.209,2.929,7.069c1.86,1.86,4.439,2.929,7.069,2.929s5.209-1.07,7.068-2.929c1.86-1.86,2.93-4.439,2.93-7.069
			C171.968,461.082,170.899,458.512,169.038,456.653z"/>
	</g>
</g>
<g>
	<g>
		<path d="M447.633,317.864l-36.785-63.713c15.083-13.975,19.107-37.036,8.401-55.579c-6.019-10.424-15.735-17.881-27.363-20.996
			c-8.333-2.234-16.933-2.031-24.976,0.473l-36.778-63.701c-1.661-2.876-4.642-4.741-7.956-4.974
			c-3.316-0.237-6.527,1.195-8.574,3.809L199.094,259.411l-48.056,27.745c-27.422,15.831-36.85,51.021-21.018,78.443
			c7.67,13.284,20.052,22.786,34.869,26.755c4.947,1.326,9.967,1.982,14.955,1.982c9.95,0,19.77-2.609,28.619-7.719l5.723-3.304
			l19.961,34.573H19.996V84.031h283.948v2.999c0,5.522,4.477,9.998,9.998,9.998s9.998-4.476,9.998-9.998V39.3
			c0-21.644-17.609-39.254-39.254-39.254H39.254C17.609,0.046,0,17.655,0,39.3V472.7c0,21.644,17.609,39.254,39.254,39.254h245.434
			c21.644,0,39.254-17.609,39.254-39.254V349.312l116.44-16.551c3.288-0.467,6.13-2.536,7.583-5.523
			C449.417,324.253,449.294,320.74,447.633,317.864z M19.996,39.3c0-10.619,8.639-19.257,19.257-19.257h245.434
			c10.618,0,19.257,8.638,19.257,19.257v24.734H19.996V39.3z M386.711,196.891c6.468,1.733,11.873,5.881,15.221,11.68
			c5.134,8.893,4.178,19.656-1.56,27.437l-22.988-39.817C380.469,195.84,383.622,196.063,386.711,196.891z M198.465,369.3
			c-8.658,4.999-18.747,6.326-28.401,3.739c-9.656-2.588-17.727-8.78-22.726-17.439c-10.318-17.873-4.173-40.809,13.699-51.128
			l41.076-23.715l37.424,64.829L198.465,369.3z M231.504,373.315l18.031-10.41l23.621,40.911l-18.031,10.41L231.504,373.315z
			 M303.944,472.699c0,10.619-8.639,19.257-19.257,19.257H39.254c-10.618,0-19.257-8.638-19.257-19.257v-34.817h283.948V472.699z
			 M303.944,417.886h-15.167l3.033-1.752c4.782-2.76,6.421-8.875,3.659-13.658l-26.207-45.393l34.682-4.93V417.886z
			 M258.492,338.417l-40.686-70.469l72.718-92.862l84.719,146.736L258.492,338.417z M396.581,318.789l-92.766-160.676l16.403-20.946
			l102.698,177.878L396.581,318.789z"/>
	</g>
</g>
<g>
	<g>
		<path d="M510.658,146.14c-2.761-4.781-8.874-6.421-13.657-3.659l-49.023,28.304c-4.782,2.76-6.421,8.875-3.659,13.657
			c1.853,3.207,5.212,5,8.668,5c1.696,0,3.415-0.432,4.989-1.341l49.023-28.304C511.781,157.037,513.42,150.922,510.658,146.14z"/>
	</g>
</g>
<g>
	<g>
		<path d="M420.164,102.243c-5.335-1.43-10.815,1.737-12.245,7.07l-7.147,26.674c-1.43,5.335,1.736,10.817,7.07,12.246
			c0.867,0.232,1.737,0.343,2.594,0.343c4.414,0,8.454-2.946,9.651-7.413l7.147-26.674
			C428.663,109.154,425.498,103.672,420.164,102.243z"/>
	</g>
</g>
<g>
	<g>
		<path d="M496.524,233.037l-27.566-7.387c-5.335-1.43-10.815,1.737-12.245,7.07c-1.43,5.334,1.736,10.816,7.07,12.246l27.566,7.387
			c0.867,0.232,1.737,0.343,2.594,0.343c4.414,0,8.454-2.946,9.651-7.413C505.023,239.948,501.858,234.465,496.524,233.037z"/>
	</g>
</g>
<g>
	<g>
		<path d="M189.632,113.194H51.669c-5.521,0-9.998,4.476-9.998,9.998s4.477,9.998,9.998,9.998h137.964
			c5.521,0,9.998-4.476,9.998-9.998S195.153,113.194,189.632,113.194z"/>
	</g>
</g>
<g>
	<g>
		<path d="M196.704,164.116c-1.86-1.87-4.439-2.93-7.069-2.93c-2.64,0-5.209,1.06-7.069,2.93c-1.87,1.86-2.929,4.439-2.929,7.069
			c0,2.63,1.06,5.209,2.929,7.069c1.86,1.859,4.429,2.929,7.069,2.929c2.63,0,5.209-1.07,7.069-2.929
			c1.859-1.86,2.929-4.439,2.929-7.069C199.633,168.555,198.564,165.976,196.704,164.116z"/>
	</g>
</g>
<g>
	<g>
		<path d="M148.306,161.185H51.669c-5.521,0-9.998,4.476-9.998,9.998s4.477,9.998,9.998,9.998h96.637
			c5.521,0,9.998-4.476,9.998-9.998S153.827,161.185,148.306,161.185z"/>
	</g>
</g>
<g>
	<g>
		<path d="M165.879,209.176H90.074c-5.521,0-9.998,4.476-9.998,9.998s4.476,9.998,9.998,9.998h75.804
			c5.521,0,9.998-4.476,9.998-9.998S171.4,209.176,165.879,209.176z"/>
	</g>
</g>
<g>
	<g>
		<path d="M52.049,209.176h-0.464c-5.521,0-9.998,4.476-9.998,9.998s4.477,9.998,9.998,9.998h0.464c5.521,0,9.998-4.476,9.998-9.998
			S57.57,209.176,52.049,209.176z"/>
	</g>
</g>
<g>
</g>
<g>
</g>
<g>
</g>
<g>
</g>
<g>
</g>
<g>
</g>
<g>
</g>
<g>
</g>
<g>
</g>
<g>
</g>
<g>
</g>
<g>
</g>
<g>
</g>
<g>
</g>
<g>
</g>
</symbol><symbol id="facebook" viewBox="0 0 97.75 97.75">
<g>
	<path d="M48.875,0C21.882,0,0,21.882,0,48.875S21.882,97.75,48.875,97.75S97.75,75.868,97.75,48.875S75.868,0,48.875,0z
		 M67.521,24.89l-6.76,0.003c-5.301,0-6.326,2.519-6.326,6.215v8.15h12.641L67.07,52.023H54.436v32.758H41.251V52.023H30.229V39.258
		h11.022v-9.414c0-10.925,6.675-16.875,16.42-16.875l9.851,0.015V24.89L67.521,24.89z"/>
</g>
<g>
</g>
<g>
</g>
<g>
</g>
<g>
</g>
<g>
</g>
<g>
</g>
<g>
</g>
<g>
</g>
<g>
</g>
<g>
</g>
<g>
</g>
<g>
</g>
<g>
</g>
<g>
</g>
<g>
</g>
</symbol><symbol id="house-outline" viewBox="0 0 611.997 611.998">
<g>
	<g>
		<path d="M511.114,300.251c-9.94,0-17.638,7.663-17.638,17.651v241.105H368.401v-98.453c0-9.236-7.697-17.31-17.002-17.31h-90.435
			c-9.948,0-17.96,8.073-17.96,17.31v98.453h-124.76v-233.1c0-9.306-7.69-17.036-17.638-17.036c-9.298,0-16.995,7.73-16.995,17.036
			v250.752c0,9.305,7.697,17.036,16.995,17.036h160.358c9.298,0,16.995-7.731,16.995-17.036v-98.454h55.801v98.454
			c0,9.305,7.697,17.036,17.639,17.036h159.715c9.299,0,16.995-7.731,16.995-17.036V317.903
			C528.109,307.915,520.413,300.251,511.114,300.251z"/>
		<path d="M607.003,314.003L467.819,174.225V78.919c0-9.921-8.019-17.583-17.96-17.583c-9.305,0-17.001,7.663-17.001,17.583v60.345
			L318.046,23.774c-3.518-3.558-7.697-5.474-11.864-5.474c-4.81,0-8.983,1.984-12.507,5.474L5.361,312.087
			c-6.917,6.91-7.375,17.994,0,24.357c6.411,7.389,17.454,6.91,24.371,0l276.45-275.793l275.807,278.393
			c2.873,2.874,7.054,4.516,12.507,4.516c4.81,0,8.976-1.642,12.507-4.516C613.42,332.613,613.899,320.982,607.003,314.003z"/>
	</g>
</g>
<g>
</g>
<g>
</g>
<g>
</g>
<g>
</g>
<g>
</g>
<g>
</g>
<g>
</g>
<g>
</g>
<g>
</g>
<g>
</g>
<g>
</g>
<g>
</g>
<g>
</g>
<g>
</g>
<g>
</g>
</symbol><symbol id="instagram" viewBox="0 0 97.75 97.75">
<g>
	<g>
		<ellipse cx="48.944" cy="48.719" rx="14.465" ry="14.017"/>
		<path d="M71.333,49.501c0,11.981-10.024,21.692-22.389,21.692s-22.389-9.711-22.389-21.692c0-2.147,0.324-4.221,0.924-6.18h-6.616
			v30.427c0,1.576,1.288,2.863,2.863,2.863h50.159c1.576,0,2.865-1.287,2.865-2.863V43.321h-6.341
			C71.008,45.28,71.333,47.354,71.333,49.501z"/>
		<path d="M65.332,35.11h8.141c1.784,0,3.242-1.458,3.242-3.242v-7.762c0-1.785-1.458-3.243-3.242-3.243h-8.141
			c-1.785,0-3.243,1.458-3.243,3.243v7.762C62.088,33.651,63.547,35.11,65.332,35.11z"/>
		<path d="M48.875,0C21.882,0,0,21.882,0,48.875S21.882,97.75,48.875,97.75S97.75,75.868,97.75,48.875S75.868,0,48.875,0z
			 M75.645,84.891H22.106c-5.087,0-9.246-3.765-9.246-9.244V22.105c0-5.481,4.159-9.245,9.246-9.245h53.539
			c5.086,0,9.246,3.764,9.246,9.245v53.542C84.891,81.126,80.73,84.891,75.645,84.891z"/>
	</g>
</g>
<g>
</g>
<g>
</g>
<g>
</g>
<g>
</g>
<g>
</g>
<g>
</g>
<g>
</g>
<g>
</g>
<g>
</g>
<g>
</g>
<g>
</g>
<g>
</g>
<g>
</g>
<g>
</g>
<g>
</g>
</symbol><symbol id="magnifier-tool" viewBox="0 0 485.213 485.213">
<g>
	<g>
		<path d="M363.909,181.955C363.909,81.473,282.44,0,181.956,0C81.474,0,0.001,81.473,0.001,181.955s81.473,181.951,181.955,181.951
			C282.44,363.906,363.909,282.437,363.909,181.955z M181.956,318.416c-75.252,0-136.465-61.208-136.465-136.46
			c0-75.252,61.213-136.465,136.465-136.465c75.25,0,136.468,61.213,136.468,136.465
			C318.424,257.208,257.206,318.416,181.956,318.416z"/>
		<path d="M471.882,407.567L360.567,296.243c-16.586,25.795-38.536,47.734-64.331,64.321l111.324,111.324
			c17.772,17.768,46.587,17.768,64.321,0C489.654,454.149,489.654,425.334,471.882,407.567z"/>
	</g>
</g>
<g>
</g>
<g>
</g>
<g>
</g>
<g>
</g>
<g>
</g>
<g>
</g>
<g>
</g>
<g>
</g>
<g>
</g>
<g>
</g>
<g>
</g>
<g>
</g>
<g>
</g>
<g>
</g>
<g>
</g>
</symbol><symbol id="monitor" viewBox="0 0 511.999 511.999">
<g>
	<g>
		<path d="M481.091,27.937H30.909C13.866,27.937,0,41.803,0,58.846v310.819c0,17.043,13.866,30.909,30.909,30.909h154.26v22.49
			c0,20.617-16.774,37.391-37.391,37.391h-33.997c-6.518,0-11.803,5.284-11.803,11.803c0,6.519,5.285,11.803,11.803,11.803h284.436
			c6.518,0,11.803-5.284,11.803-11.803c0-6.519-5.285-11.803-11.803-11.803h-33.998c-20.617,0-37.391-16.774-37.391-37.391v-22.489
			h154.26c17.043,0,30.91-13.866,30.91-30.909V58.846C512,41.803,498.134,27.937,481.091,27.937z M195.92,460.457
			c8.046-10.336,12.857-23.308,12.857-37.391v-22.49h94.447v22.49c0,14.083,4.811,27.056,12.857,37.391H195.92z M488.394,369.666
			c0,4.027-3.276,7.304-7.304,7.304H30.909c-4.027,0-7.304-3.276-7.304-7.304v-62.033h464.789V369.666z M488.394,284.026H23.606
			V58.846c0-4.027,3.276-7.304,7.304-7.304h450.18c4.027,0,7.305,3.276,7.305,7.304V284.026z"/>
	</g>
</g>
<g>
	<g>
		<circle cx="256.003" cy="342.305" r="12.738"/>
	</g>
</g>
<g>
	<g>
		<path d="M276.238,109.254c-4.61-4.609-12.081-4.609-16.693,0l-83.414,83.414c-4.609,4.609-4.609,12.083,0,16.693
			c2.306,2.305,5.325,3.457,8.347,3.457c3.022,0,6.041-1.152,8.346-3.457l83.414-83.414
			C280.847,121.338,280.847,113.864,276.238,109.254z"/>
	</g>
</g>
<g>
	<g>
		<path d="M325.678,157.593c-4.608-4.609-12.079-4.609-16.692-0.001l-33.23,33.228c-4.609,4.61-4.609,12.084,0,16.693
			c2.305,2.305,5.325,3.457,8.346,3.457c3.02,0,6.041-1.152,8.346-3.457l33.23-33.228
			C330.287,169.676,330.287,162.202,325.678,157.593z"/>
	</g>
</g>
<g>
</g>
<g>
</g>
<g>
</g>
<g>
</g>
<g>
</g>
<g>
</g>
<g>
</g>
<g>
</g>
<g>
</g>
<g>
</g>
<g>
</g>
<g>
</g>
<g>
</g>
<g>
</g>
<g>
</g>
</symbol><symbol id="open-book" viewBox="0 0 297.001 297.001">
<g>
	<g>
		<path d="M287.034,60.873l-20.819-0.001V39.321c0-4.934-3.61-9.126-8.49-9.856c-0.852-0.128-21.134-3.074-45.557,1.37
			c-27.227,4.954-48.941,17.171-63.668,35.64c-14.728-18.469-36.442-30.686-63.668-35.64c-24.424-4.443-44.706-1.498-45.557-1.37
			c-4.88,0.731-8.49,4.923-8.49,9.856v21.551H9.966C4.463,60.872,0,65.335,0,70.839v187.805c0,3.227,1.562,6.254,4.193,8.124
			s6.004,2.35,9.051,1.288c0.748-0.259,75.431-25.747,131.12-0.345c2.628,1.199,5.645,1.199,8.273,0
			c55.533-25.33,130.376,0.088,131.12,0.345c1.068,0.372,2.174,0.555,3.276,0.555c2.043,0,4.065-0.628,5.775-1.842
			c2.631-1.87,4.193-4.897,4.193-8.124V70.84C297,65.336,292.538,60.873,287.034,60.873z M19.933,245.309V80.805h10.852v132.726
			c0,2.896,1.267,5.646,3.458,7.539c2.191,1.893,5.105,2.742,7.969,2.319c0.55-0.08,43.846-6.024,75.478,15.679
			C78.725,232.405,39.727,240.112,19.933,245.309z M138.534,230.08c-13.932-12.588-32.079-21.1-53.702-25.034
			c-10.406-1.894-20.06-2.446-27.78-2.446c-2.292,0-4.414,0.049-6.333,0.126V48.473h-0.001c19.155-0.864,65.752,1.184,87.816,38.587
			V230.08z M158.466,87.061c21.985-37.243,68.655-39.384,87.816-38.563v154.228c-8.383-0.338-20.62-0.136-34.114,2.32
			c-21.623,3.934-39.77,12.445-53.702,25.034V87.061z M179.277,239.074c31.636-21.716,74.955-15.766,75.495-15.686
			c2.871,0.431,5.783-0.413,7.981-2.305c2.198-1.894,3.462-4.65,3.462-7.552V80.806h10.852v164.503
			C257.267,240.11,218.253,232.4,179.277,239.074z"/>
	</g>
</g>
<g>
</g>
<g>
</g>
<g>
</g>
<g>
</g>
<g>
</g>
<g>
</g>
<g>
</g>
<g>
</g>
<g>
</g>
<g>
</g>
<g>
</g>
<g>
</g>
<g>
</g>
<g>
</g>
<g>
</g>
</symbol><symbol id="pinterest" viewBox="0 0 97.75 97.75">
<g>
	<path d="M48.875,0C21.883,0,0,21.882,0,48.875S21.883,97.75,48.875,97.75S97.75,75.868,97.75,48.875S75.867,0,48.875,0z
		 M54.499,65.109c-4.521,0-8.773-2.444-10.229-5.219c0,0-2.432,9.645-2.943,11.506c-1.813,6.58-7.146,13.162-7.561,13.701
		c-0.289,0.375-0.928,0.258-0.994-0.24c-0.113-0.838-1.475-9.139,0.127-15.909c0.801-3.4,5.383-22.814,5.383-22.814
		s-1.334-2.673-1.334-6.625c0-6.205,3.596-10.837,8.074-10.837c3.807,0,5.645,2.859,5.645,6.286c0,3.828-2.436,9.552-3.693,14.856
		c-1.051,4.441,2.225,8.064,6.605,8.064c7.933,0,13.272-10.188,13.272-22.261c0-9.174-6.176-16.044-17.418-16.044
		c-12.697,0-20.615,9.471-20.615,20.052c0,3.646,1.078,6.221,2.764,8.21c0.773,0.915,0.883,1.283,0.602,2.333
		c-0.203,0.771-0.66,2.625-0.854,3.358c-0.279,1.062-1.137,1.44-2.098,1.049c-5.846-2.387-8.572-8.793-8.572-15.994
		c0-11.893,10.029-26.154,29.922-26.154c15.985,0,26.506,11.566,26.506,23.984C77.089,52.839,67.956,65.109,54.499,65.109z"/>
</g>
<g>
</g>
<g>
</g>
<g>
</g>
<g>
</g>
<g>
</g>
<g>
</g>
<g>
</g>
<g>
</g>
<g>
</g>
<g>
</g>
<g>
</g>
<g>
</g>
<g>
</g>
<g>
</g>
<g>
</g>
</symbol><symbol id="shopping-cart" viewBox="0 0 510 510">
<g>
	<g id="shopping-cart">
		<path d="M153,408c-28.05,0-51,22.95-51,51s22.95,51,51,51s51-22.95,51-51S181.05,408,153,408z M0,0v51h51l91.8,193.8L107.1,306
			c-2.55,7.65-5.1,17.85-5.1,25.5c0,28.05,22.95,51,51,51h306v-51H163.2c-2.55,0-5.1-2.55-5.1-5.1v-2.551l22.95-43.35h188.7
			c20.4,0,35.7-10.2,43.35-25.5L504.9,89.25c5.1-5.1,5.1-7.65,5.1-12.75c0-15.3-10.2-25.5-25.5-25.5H107.1L84.15,0H0z M408,408
			c-28.05,0-51,22.95-51,51s22.95,51,51,51s51-22.95,51-51S436.05,408,408,408z"/>
	</g>
</g>
<g>
</g>
<g>
</g>
<g>
</g>
<g>
</g>
<g>
</g>
<g>
</g>
<g>
</g>
<g>
</g>
<g>
</g>
<g>
</g>
<g>
</g>
<g>
</g>
<g>
</g>
<g>
</g>
<g>
</g>
</symbol><symbol id="twitter" viewBox="0 0 97.75 97.75">
<g>
	<path d="M48.875,0C21.882,0,0,21.882,0,48.875S21.882,97.75,48.875,97.75S97.75,75.868,97.75,48.875S75.868,0,48.875,0z
		 M78.43,35.841c0.023,0.577,0.035,1.155,0.035,1.736c0,20.878-15.887,42.473-42.473,42.473c-8.127,0-16.04-2.319-22.883-6.708
		c-0.143-0.091-0.202-0.268-0.145-0.427c0.057-0.158,0.218-0.256,0.383-0.237c1.148,0.137,2.322,0.205,3.487,0.205
		c6.323,0,12.309-1.955,17.372-5.664c-6.069-0.512-11.285-4.619-13.161-10.478c-0.039-0.122-0.011-0.255,0.073-0.351
		c0.085-0.096,0.215-0.138,0.339-0.115c1.682,0.319,3.392,0.34,5.04,0.072c-6.259-1.945-10.658-7.808-10.658-14.483l0.002-0.194
		c0.003-0.127,0.072-0.243,0.182-0.306c0.109-0.064,0.245-0.065,0.355-0.003c1.632,0.906,3.438,1.488,5.291,1.711
		c-3.597-2.867-5.709-7.213-5.709-11.862c0-2.682,0.71-5.318,2.054-7.623c0.06-0.103,0.166-0.169,0.284-0.178
		c0.119-0.012,0.234,0.04,0.309,0.132c7.362,9.03,18.191,14.59,29.771,15.305c-0.193-0.972-0.291-1.974-0.291-2.985
		c0-8.361,6.802-15.162,15.162-15.162c4.11,0,8.082,1.689,10.929,4.641c3.209-0.654,6.266-1.834,9.09-3.508
		c0.129-0.077,0.291-0.065,0.41,0.028c0.116,0.094,0.164,0.25,0.118,0.394c-0.957,2.993-2.823,5.604-5.33,7.489
		c2.361-0.411,4.652-1.105,6.831-2.072c0.146-0.067,0.319-0.025,0.424,0.098c0.104,0.124,0.113,0.301,0.023,0.435
		C83.759,31.175,81.299,33.744,78.43,35.841z"/>
</g>
<g>
</g>
<g>
</g>
<g>
</g>
<g>
</g>
<g>
</g>
<g>
</g>
<g>
</g>
<g>
</g>
<g>
</g>
<g>
</g>
<g>
</g>
<g>
</g>
<g>
</g>
<g>
</g>
<g>
</g>
</symbol></svg>